<?xml version="1.0" encoding="UTF-8"?>
<svg width="22px" height="16px" viewBox="0 0 22 16" version="1.1" xmlns="http://www.w3.org/2000/svg" xmlns:xlink="http://www.w3.org/1999/xlink">
    <!-- Generator: Sketch 53 (72520) - https://sketchapp.com -->
    <title>Combined Shape</title>
    <desc>Created with Sketch.</desc>
    <g id="Page-1" stroke="none" stroke-width="1" fill="none" fill-rule="evenodd" stroke-opacity="0.5">
        <g id="Your-Profile-Multiple-View" transform="translate(-74.000000, -378.000000)" fill="#F1F2F4" stroke="#999999" stroke-width="0.5">
            <g id="Content" transform="translate(0.000000, 76.000000)">
                <g id="Photos" transform="translate(0.000000, 186.000000)">
                    <path d="M90.75,121.426018 C90.75,120.776751 91.2060786,120.053128 91.7990149,119.767014 L93.9836911,118.712824 C94.6500331,118.391289 95.25,118.759451 95.25,119.495577 L95.25,128.504423 C95.25,129.250564 94.6502604,129.575527 94.0187142,129.178781 L91.7153084,127.731748 C91.1754628,127.392609 90.75,126.624181 90.75,125.991277 L90.75,121.426018 Z M74.75,118.006845 C74.75,117.312454 75.3121327,116.75 76.0068455,116.75 L87.9931545,116.75 C88.6875465,116.75 89.25,117.312133 89.25,118.006845 L89.25,129.993155 C89.25,130.687546 88.6878673,131.25 87.9931545,131.25 L76.0068455,131.25 C75.3124535,131.25 74.75,130.687867 74.75,129.993155 L74.75,118.006845 Z M82,128.75 C84.6233526,128.75 86.75,126.623353 86.75,124 C86.75,121.376647 84.6233526,119.25 82,119.25 C79.3766474,119.25 77.25,121.376647 77.25,124 C77.25,126.623353 79.3766474,128.75 82,128.75 Z M82,127.25 C80.2050746,127.25 78.75,125.794925 78.75,124 C78.75,122.205075 80.2050746,120.75 82,120.75 C83.7949254,120.75 85.25,122.205075 85.25,124 C85.25,125.794925 83.7949254,127.25 82,127.25 Z" id="Combined-Shape"></path>
                </g>
            </g>
        </g>
    </g>
</svg>